<svg xmlns="http://www.w3.org/2000/svg" viewBox="0 0 1000 1000">
  <rect width="1000" height="1000" fill="white"/>
  <g fill="white" stroke="black" stroke-width="16" stroke-linecap="round" stroke-linejoin="round">
    <!-- ears -->
    <circle cx="335" cy="250" r="95"/>
    <circle cx="665" cy="250" r="95"/>
    <circle cx="335" cy="250" r="46"/>
    <circle cx="665" cy="250" r="46"/>

    <!-- head -->
    <circle cx="500" cy="420" r="250"/>

    <!-- eyes -->
    <ellipse cx="420" cy="390" rx="34" ry="42"/>
    <ellipse cx="580" cy="390" rx="34" ry="42"/>
    <circle cx="420" cy="390" r="9" fill="black"/>
    <circle cx="580" cy="390" r="9" fill="black"/>

    <!-- muzzle -->
    <ellipse cx="500" cy="500" rx="120" ry="90"/>
    <ellipse cx="500" cy="495" rx="28" ry="20"/>
    <path d="M500 515 C470 545 445 550 425 555"/>
    <path d="M500 515 C530 545 555 550 575 555"/>

    <!-- body -->
    <ellipse cx="500" cy="760" rx="240" ry="170"/>

    <!-- arms -->
    <ellipse cx="275" cy="730" rx="75" ry="120"/>
    <ellipse cx="725" cy="730" rx="75" ry="120"/>

    <!-- feet -->
    <ellipse cx="420" cy="890" rx="90" ry="62"/>
    <ellipse cx="580" cy="890" rx="90" ry="62"/>

    <!-- tummy heart -->
    <path d="M500 740 C470 695 400 725 430 785 C445 815 475 825 500 850 C525 825 555 815 570 785 C600 725 530 695 500 740 Z"/>
  </g>
</svg>
